<svg width="28" height="23" viewBox="0 0 28 23" fill="none" xmlns="http://www.w3.org/2000/svg">
<path d="M3 9.30769L1.57411 10.7101L0.194735 9.30769L1.57411 7.90525L3 9.30769ZM28 21C28 22.1046 27.1046 23 26 23C24.8954 23 24 22.1046 24 21L28 21ZM8.76161 18.0178L1.57411 10.7101L4.42589 7.90525L11.6134 15.2129L8.76161 18.0178ZM1.57411 7.90525L8.76161 0.597562L11.6134 3.40244L4.42589 10.7101L1.57411 7.90525ZM3 7.30769L20 7.30769L20 11.3077L3 11.3077L3 7.30769ZM28 15.3077L28 21L24 21L24 15.3077L28 15.3077ZM20 7.30769C24.4183 7.30769 28 10.8894 28 15.3077L24 15.3077C24 13.0986 22.2091 11.3077 20 11.3077L20 7.30769Z" fill="white"/>
</svg>
