<svg width="31" height="28" viewBox="0 0 31 28" fill="none" xmlns="http://www.w3.org/2000/svg">
<path d="M4.4865 4.56117C4.49798 4.54967 4.50959 4.53831 4.52134 4.52709L4.57625 4.47467C6.17061 2.89277 8.32581 2.00475 10.5724 2.00475C12.2155 2.00475 13.8097 2.47975 15.1714 3.3538C16.5346 2.47675 18.1316 2 19.7777 2C22.027 2 24.1845 2.89012 25.7793 4.47531L25.8336 4.52709C25.8453 4.53831 25.8569 4.54967 25.8684 4.56117C27.4607 6.15716 28.3549 8.31956 28.3549 10.574C28.3549 12.8285 27.4607 14.9909 25.8684 16.5868L25.8668 16.5885L21.1967 21.2586L17.3727 25.0826C17.3715 25.0837 17.3703 25.0849 17.3692 25.0861C17.0814 25.3751 16.7394 25.6046 16.3628 25.7615L4.4865 4.56117ZM4.4865 4.56117C2.89422 6.15716 2 8.31956 2 10.574C2 12.8285 2.89422 14.9909 4.4865 16.5868L4.48814 16.5885M4.4865 4.56117L4.48814 16.5885M4.48814 16.5885L9.16162 21.262M4.48814 16.5885L9.16162 21.262M9.16162 21.262L9.16455 21.2649M9.16162 21.262L9.16455 21.2649M9.16455 21.2649L12.9664 25.0825C12.9667 25.0829 12.9671 25.0833 12.9675 25.0837C13.2558 25.3739 13.5986 25.6042 13.9762 25.7615L9.16455 21.2649ZM15.1695 26C14.76 26 14.3544 25.919 13.9763 25.7615L15.1695 26ZM15.1695 26C15.579 26 15.9846 25.919 16.3628 25.7615L15.1695 26Z" stroke="white" stroke-width="4" stroke-linecap="round" stroke-linejoin="round"/>
</svg>
