<svg width="23" height="23" viewBox="0 0 23 23" fill="none" xmlns="http://www.w3.org/2000/svg">
<path d="M3.67962 2.20927L4.18178 1.70711C4.57231 1.31658 5.20547 1.31658 5.59599 1.70711L9.07067 5.18178C9.46119 5.57231 9.4612 6.20547 9.07067 6.59599L7.66547 8.0012C7.46712 8.19955 7.41795 8.50256 7.54339 8.75345C8.99376 11.6542 11.3458 14.0062 14.2465 15.4566C14.4974 15.5821 14.8005 15.5329 14.9988 15.3345L16.404 13.9293C16.7945 13.5388 17.4277 13.5388 17.8182 13.9293L21.2929 17.404C21.6834 17.7945 21.6834 18.4277 21.2929 18.8182L20.7907 19.3204C18.6794 21.4317 15.3368 21.6693 12.9481 19.8777L9.9619 17.6381C8.21837 16.3304 6.66955 14.7816 5.36191 13.0381L3.12226 10.0519C1.33072 7.66318 1.56827 4.32062 3.67962 2.20927Z" stroke="#781EB4" stroke-width="2"/>
</svg>


