<svg width="27" height="26" viewBox="0 0 27 26" fill="none" xmlns="http://www.w3.org/2000/svg">
<path d="M24 8.875L25.4142 10.2892L26.8284 8.875L25.4142 7.46079L24 8.875ZM17.125 26C18.2296 26 19.125 25.1046 19.125 24C19.125 22.8954 18.2296 22 17.125 22L17.125 26ZM18.5392 17.1642L25.4142 10.2892L22.5858 7.46079L15.7108 14.3358L18.5392 17.1642ZM25.4142 7.46079L18.5392 0.585788L15.7108 3.41421L22.5858 10.2892L25.4142 7.46079ZM24 6.875L9.5625 6.875L9.5625 10.875L24 10.875L24 6.875ZM9.5625 26L17.125 26L17.125 22L9.5625 22L9.5625 26ZM-1.24621e-06 16.4375C-1.70791e-06 21.7187 4.28128 26 9.5625 26L9.5625 22C6.49041 22 4 19.5096 4 16.4375L-1.24621e-06 16.4375ZM9.5625 6.875C4.28128 6.875 -7.84515e-07 11.1563 -1.24621e-06 16.4375L4 16.4375C4 13.3654 6.49041 10.875 9.5625 10.875L9.5625 6.875Z" fill="white"/>
</svg>
