<svg width="30" height="30" viewBox="0 0 30 30" fill="none" xmlns="http://www.w3.org/2000/svg">
<circle cx="15" cy="15" r="15" fill="#0055FF"/>
<path d="M23.9049 10.265C24.0466 9.75234 23.9049 9.375 23.2234 9.375H20.9682C20.3939 9.375 20.1297 9.69902 19.9881 10.06C19.9881 10.06 18.8394 13.0582 17.216 15.0023C16.6914 15.5643 16.4502 15.7447 16.1631 15.7447C16.0214 15.7447 15.8031 15.5643 15.8031 15.0516V10.265C15.8031 9.6498 15.6423 9.375 15.1676 9.375H11.6221C11.2622 9.375 11.0477 9.66211 11.0477 9.92871C11.0477 10.5111 11.8595 10.6465 11.9437 12.2871V15.8473C11.9437 16.6266 11.8135 16.7701 11.5263 16.7701C10.7606 16.7701 8.89977 13.7596 7.79707 10.3143C7.575 9.6457 7.35676 9.375 6.7786 9.375H4.52342C3.88018 9.375 3.75 9.69902 3.75 10.06C3.75 10.6998 4.51577 13.8785 7.31464 18.0785C9.17928 20.9455 11.8059 22.5 14.195 22.5C15.6308 22.5 15.807 22.1555 15.807 21.5607C15.807 18.8209 15.6768 18.5625 16.3966 18.5625C16.7297 18.5625 17.304 18.743 18.6441 20.1252C20.1757 21.7658 20.4284 22.5 21.286 22.5H23.5412C24.1845 22.5 24.5099 22.1555 24.3223 21.4746C23.8935 20.0432 20.995 17.0982 20.8649 16.9014C20.5317 16.442 20.6275 16.2369 20.8649 15.8268C20.8687 15.8227 23.6216 11.6719 23.9049 10.265Z" fill="white"/>
</svg>
