<svg width="30" height="30" viewBox="0 0 30 30" fill="none" xmlns="http://www.w3.org/2000/svg">
<circle cx="15" cy="15" r="15" fill="#E4032E"/>
<path d="M24.9011 9.84699C24.6747 8.92316 24.0076 8.19559 23.1605 7.94867C21.6252 7.5 15.4687 7.5 15.4687 7.5C15.4687 7.5 9.31233 7.5 7.77697 7.94867C6.92993 8.19563 6.26281 8.92316 6.03639 9.84699C5.625 11.5215 5.625 15.0152 5.625 15.0152C5.625 15.0152 5.625 18.5088 6.03639 20.1833C6.26281 21.1071 6.92993 21.8044 7.77697 22.0513C9.31233 22.5 15.4687 22.5 15.4687 22.5C15.4687 22.5 21.6252 22.5 23.1605 22.0513C24.0076 21.8044 24.6747 21.1071 24.9011 20.1833C25.3125 18.5088 25.3125 15.0152 25.3125 15.0152C25.3125 15.0152 25.3125 11.5215 24.9011 9.84699ZM13.4552 18.1871V11.8432L18.6008 15.0152L13.4552 18.1871Z" fill="white"/>
</svg>
